# xmcd
#
# Track frame offsets: 
#        150
#        20198
#        37806
#        58055
#        77128
#        95385
#        111499
#        135622
#        150724
#        167485
#        189564
#        207179
#        228331
#        250653
#        266856
#
# Disc length: 3777 seconds
#
# Revision: 8
# Processed by: cddbd v1.5.2PL0 Copyright (c) Steve Scherf et al.
# Submitted via: ExactAudioCopy v1.3
#
DISCID=ca0ebf0f
DTITLE=Chris Rea - The Platinum Collection
DYEAR=2006
DGENRE=Rock
TTITLE0=The Road to Hell, Part 2
TTITLE1=You Can Go Your Own Way
TTITLE2=Josephine
TTITLE3=Let's Dance
TTITLE4=Fool (If You Think It's Over)
TTITLE5=The Things Lovers Should Do
TTITLE6=Wired to the Moon
TTITLE7=I Can Hear Your Heartbeat
TTITLE8=On the Beach
TTITLE9=Ace of Hearts
TTITLE10=Julia
TTITLE11=Auberge
TTITLE12=Looking for the Summer
TTITLE13=I Don't Know What It Is but I Love It
TTITLE14=Love's Strange Ways
EXTD=Location:  - UPC: 5051011297823 - Catalogue number: 5101-12978-2 - 
EXTD=Label: Warner Platinum, Rhino - ASIN: B000EIEJF0 - Release Date: 20
EXTD=06 03 20 - Discogs: r2367261 - MUSICBRAINZ_ALBUMID: b9aeb238-51d7-4
EXTD=bc0-8098-294727f86abb - AMG: ;
EXTT0=
EXTT1=
EXTT2=
EXTT3=
EXTT4=
EXTT5=
EXTT6=
EXTT7=
EXTT8=
EXTT9=
EXTT10=
EXTT11=
EXTT12=
EXTT13=
EXTT14=
PLAYORDER=
